<?xml version="1.0" encoding="UTF-8" standalone="no"?>
<svg width="128" height="128" viewBox="0 0 128 128" fill="none" xmlns="http://www.w3.org/2000/svg">
  <!-- Turtle Happy Animation Frame - Pixel Art Style -->
  <!-- Head -->
  <rect x="56" y="24" width="16" height="16" fill="#5D9C59"/>
  <rect x="52" y="28" width="4" height="8" fill="#5D9C59"/>
  <rect x="72" y="28" width="4" height="8" fill="#5D9C59"/>
  <!-- Happy Eyes (curved) -->
  <rect x="56" y="28" width="4" height="2" fill="black"/>
  <rect x="56" y="30" width="2" height="2" fill="black"/>
  <rect x="68" y="28" width="4" height="2" fill="black"/>
  <rect x="70" y="30" width="2" height="2" fill="black"/>
  <!-- Smiling Mouth -->
  <rect x="60" y="34" width="8" height="2" fill="#3D5C3E"/>
  <rect x="58" y="32" width="2" height="2" fill="#3D5C3E"/>
  <rect x="68" y="32" width="2" height="2" fill="#3D5C3E"/>
  <!-- Shell -->
  <rect x="36" y="40" width="56" height="48" fill="#2D5C31"/>
  <rect x="40" y="44" width="48" height="40" fill="#3D7A40"/>
  <rect x="44" y="48" width="40" height="32" fill="#5D9C59"/>
  <rect x="48" y="52" width="8" height="8" fill="#78B776"/>
  <rect x="60" y="52" width="8" height="8" fill="#78B776"/>
  <rect x="72" y="52" width="8" height="8" fill="#78B776"/>
  <rect x="48" y="64" width="8" height="8" fill="#78B776"/>
  <rect x="60" y="64" width="8" height="8" fill="#78B776"/>
  <rect x="72" y="64" width="8" height="8" fill="#78B776"/>
  <!-- Front Legs - Happy position (raised up) -->
  <rect x="40" y="82" width="12" height="10" fill="#5D9C59"/>
  <rect x="76" y="82" width="12" height="10" fill="#5D9C59"/>
  <!-- Back Legs -->
  <rect x="32" y="60" width="8" height="12" fill="#5D9C59"/>
  <rect x="88" y="60" width="8" height="12" fill="#5D9C59"/>
  <!-- Wagging Tail -->
  <rect x="58" y="88" width="12" height="4" fill="#5D9C59"/>
  <rect x="62" y="92" width="8" height="4" fill="#4A7B48"/>
  <!-- Hearts for love effect -->
  <rect x="40" y="20" width="2" height="2" fill="#FF5252"/>
  <rect x="42" y="18" width="2" height="2" fill="#FF5252"/>
  <rect x="44" y="20" width="2" height="2" fill="#FF5252"/>
  <rect x="42" y="22" width="2" height="4" fill="#FF5252"/>
  <rect x="84" y="16" width="2" height="2" fill="#FF5252"/>
  <rect x="86" y="14" width="2" height="2" fill="#FF5252"/>
  <rect x="88" y="16" width="2" height="2" fill="#FF5252"/>
  <rect x="86" y="18" width="2" height="4" fill="#FF5252"/>
</svg>