<?xml version="1.0" encoding="UTF-8" standalone="no"?>
<svg width="56" height="48" viewBox="0 0 56 48" fill="none" xmlns="http://www.w3.org/2000/svg">
  <!-- Patterned Shell - Pixel Art Style -->
  <rect x="0" y="0" width="56" height="48" fill="none"/>
  <rect x="0" y="0" width="56" height="48" fill="#2D5C31"/>
  <rect x="4" y="4" width="48" height="40" fill="#3D7A40"/>
  <rect x="8" y="8" width="40" height="32" fill="#5D9C59"/>
  <!-- Complex Pattern -->
  <rect x="12" y="12" width="4" height="4" fill="#78B776"/>
  <rect x="20" y="12" width="4" height="4" fill="#78B776"/>
  <rect x="28" y="12" width="4" height="4" fill="#78B776"/>
  <rect x="36" y="12" width="4" height="4" fill="#78B776"/>
  <rect x="16" y="16" width="4" height="4" fill="#78B776"/>
  <rect x="24" y="16" width="4" height="4" fill="#78B776"/>
  <rect x="32" y="16" width="4" height="4" fill="#78B776"/>
  <rect x="40" y="16" width="4" height="4" fill="#78B776"/>
  <rect x="12" y="20" width="4" height="4" fill="#78B776"/>
  <rect x="20" y="20" width="4" height="4" fill="#78B776"/>
  <rect x="28" y="20" width="4" height="4" fill="#78B776"/>
  <rect x="36" y="20" width="4" height="4" fill="#78B776"/>
  <rect x="16" y="24" width="4" height="4" fill="#78B776"/>
  <rect x="24" y="24" width="4" height="4" fill="#78B776"/>
  <rect x="32" y="24" width="4" height="4" fill="#78B776"/>
  <rect x="40" y="24" width="4" height="4" fill="#78B776"/>
  <rect x="12" y="28" width="4" height="4" fill="#78B776"/>
  <rect x="20" y="28" width="4" height="4" fill="#78B776"/>
  <rect x="28" y="28" width="4" height="4" fill="#78B776"/>
  <rect x="36" y="28" width="4" height="4" fill="#78B776"/>
  <rect x="16" y="32" width="4" height="4" fill="#78B776"/>
  <rect x="24" y="32" width="4" height="4" fill="#78B776"/>
  <rect x="32" y="32" width="4" height="4" fill="#78B776"/>
  <rect x="40" y="32" width="4" height="4" fill="#78B776"/>
</svg>