<?xml version="1.0" encoding="UTF-8" standalone="no"?>
<svg width="56" height="48" viewBox="0 0 56 48" fill="none" xmlns="http://www.w3.org/2000/svg">
  <!-- Spiked Shell - Pixel Art Style -->
  <rect x="0" y="0" width="56" height="48" fill="none"/>
  <rect x="0" y="0" width="56" height="48" fill="#2D5C31"/>
  <!-- Base Shell -->
  <rect x="4" y="4" width="48" height="40" fill="#3D7A40"/>
  <rect x="8" y="8" width="40" height="32" fill="#5D9C59"/>
  <!-- Shell Pattern -->
  <rect x="12" y="12" width="8" height="8" fill="#78B776"/>
  <rect x="24" y="12" width="8" height="8" fill="#78B776"/>
  <rect x="36" y="12" width="8" height="8" fill="#78B776"/>
  <rect x="12" y="24" width="8" height="8" fill="#78B776"/>
  <rect x="24" y="24" width="8" height="8" fill="#78B776"/>
  <rect x="36" y="24" width="8" height="8" fill="#78B776"/>
  <!-- Spikes -->
  <rect x="24" y="0" width="8" height="4" fill="#3D7A40"/>
  <rect x="0" y="20" width="4" height="8" fill="#3D7A40"/>
  <rect x="52" y="20" width="4" height="8" fill="#3D7A40"/>
  <rect x="12" y="44" width="8" height="4" fill="#3D7A40"/>
  <rect x="36" y="44" width="8" height="4" fill="#3D7A40"/>
</svg>